<svg id="Capa_1" enable-background="new 0 0 512 512" height="512" viewBox="0 0 512 512" width="512" xmlns="http://www.w3.org/2000/svg"><path d="m256 0c-70.305 0-134.055 29.597-180.229 75.771s-75.771 109.924-75.771 180.229c0 140.61 115.39 256 256 256 70.305 0 134.055-29.597 180.229-75.771s75.771-109.924 75.771-180.229c0-140.61-115.39-256-256-256zm0 331c-41.422 0-75-33.58-75-75 0-20.711 8.395-39.459 21.967-53.033 13.572-13.572 32.322-21.967 53.033-21.967 41.422 0 75 33.578 75 75 0 20.709-8.395 39.461-21.967 53.033-13.574 13.573-32.322 21.967-53.033 21.967z" fill="#575f64"/><path d="m256 0c-70.305 0-134.055 29.597-180.229 75.771l127.196 127.196c13.572-13.572 32.322-21.967 53.033-21.967 41.422 0 75 33.578 75 75 0 20.709-8.395 39.461-21.967 53.033l127.196 127.196c46.174-46.174 75.771-109.924 75.771-180.229 0-140.61-115.39-256-256-256z" fill="#474f54"/><path d="m256 121c-37.278 0-71.03 15.11-95.46 39.54s-39.54 58.18-39.54 95.46c0 74.559 60.441 135 135 135 37.28 0 71.03-15.11 95.46-39.54s39.54-58.182 39.54-95.46c0-74.559-60.441-135-135-135zm0 180c-24.814 0-45-20.186-45-45 0-12.407 5.046-23.657 13.195-31.805s19.398-13.195 31.805-13.195c24.814 0 45 20.186 45 45 0 12.407-5.046 23.657-13.195 31.805s-19.398 13.195-31.805 13.195z" fill="#fe8497"/><path d="m256 121c-37.278 0-71.03 15.11-95.46 39.54l63.655 63.655c8.148-8.149 19.398-13.195 31.805-13.195 24.814 0 45 20.186 45 45 0 12.407-5.046 23.657-13.195 31.805l63.655 63.655c24.43-24.43 39.54-58.182 39.54-95.46 0-74.559-60.441-135-135-135z" fill="#ff3980"/><path d="m16 16-10.605 10.605 127.28 127.281 10.605-10.606 10.606-10.605-127.281-127.28z" fill="#cdf1ff"/><path d="m217.519 196.308-10.606 10.605-10.605 10.606 27.876 27.876 10.605-10.606 10.606-10.605z" fill="#cdf1ff"/><path d="m77.444-15.663h14.998v180.001h-14.998z" fill="#c4dcff" transform="matrix(.707 -.707 .707 .707 -27.685 81.837)"/><path d="m218.655 195.837h14.998v39.423h-14.998z" fill="#c4dcff" transform="matrix(.707 -.707 .707 .707 -86.177 223.048)"/><path d="m164.491 100.858-31.816 31.817-31.817 31.816 84.844 84.859 31.824-31.824 31.824-31.824z" fill="#daffff"/><path d="m164.491 100.858-31.816 31.817 84.851 84.851 31.824-31.824z" fill="#cdf1ff"/></svg>